<svg width="65" height="65" viewBox="0 0 65 65" fill="none" xmlns="http://www.w3.org/2000/svg">
<path d="M0 3C0 1.34315 1.34315 0 3 0H65V65H0V3Z" fill="#319F1C"/>
<path d="M41.885 36.1097L48.8047 43.0289C50.3978 44.623 50.3991 47.2087 48.8047 48.8035C47.2094 50.3981 44.6245 50.3975 43.0292 48.8035L36.1147 41.8886C37.2941 41.2082 38.3921 40.3688 39.3807 39.3801C40.3794 38.3814 41.2134 37.2798 41.885 36.1097Z" fill="white"/>
<path d="M18.9 18.8985C21.4141 16.3845 24.7577 15 28.3134 15C31.8694 15 35.2116 16.3852 37.7263 18.8997C42.9173 24.0906 42.9173 32.5361 37.7263 37.7265C35.2116 40.2417 31.8695 41.6267 28.3134 41.6267C24.7577 41.6267 21.4151 40.2416 18.9009 37.7271C16.3852 35.2133 15 31.8703 15 28.314C15.0001 24.7575 16.3852 21.414 18.9 18.8985ZM21.3811 35.2464C23.2333 37.0985 25.6951 38.1189 28.3135 38.1189C30.9319 38.1189 33.394 37.0986 35.2459 35.2464C39.0691 31.4234 39.0691 25.2028 35.2459 21.3798C33.394 19.5282 30.9319 18.508 28.3135 18.508C25.6941 18.508 23.2323 19.5277 21.3802 21.3793C19.5278 23.232 18.5083 25.6945 18.5083 28.314C18.5082 30.9328 19.5277 33.3948 21.3811 35.2464Z" fill="white"/>
<path d="M23.8065 26.5594L26.5595 26.5596V23.8086C26.5595 22.8397 27.3448 22.0547 28.3132 22.0547C29.2815 22.0547 30.0673 22.8397 30.0673 23.8086V26.5599L32.8182 26.5601C33.7865 26.5601 34.5721 27.3456 34.5721 28.314C34.5721 29.2828 33.7865 30.0679 32.8182 30.0679L30.0673 30.0678V32.8187C30.0673 33.7877 29.2815 34.5728 28.3132 34.5728C27.3448 34.5728 26.5595 33.7877 26.5595 32.8187V30.0675L23.8065 30.0674C22.8381 30.0674 22.0523 29.2817 22.0523 28.3133C22.0523 27.3445 22.8381 26.5594 23.8065 26.5594Z" fill="white"/>
</svg>
